HIERARCHY
ROOT Hips
{
	OFFSET 0.000000 0.000000 0.000000 
	CHANNELS 6 Xposition Yposition Zposition Zrotation Yrotation Xrotation
	JOINT LeftUpLeg
	{
		OFFSET 1.363060 -1.794630 0.839290 
		CHANNELS 3 Zrotation Yrotation Xrotation
		JOINT LeftLeg
		{
			OFFSET 2.448110 -6.726130 0.000000 
			CHANNELS 3 Zrotation Yrotation Xrotation
			JOINT LeftFoot
			{
				OFFSET 2.562200 -7.039590 0.000000 
				CHANNELS 3 Zrotation Yrotation Xrotation
				JOINT LeftToeBase
				{
					OFFSET 0.157640 -0.433110 2.322550 
					CHANNELS 3 Zrotation Yrotation Xrotation
					End Site
					{
						OFFSET 0.000000 0.000000 0.000000 
					}
				}
			}
		}
	}
	JOINT RightUpLeg
	{
		OFFSET -1.305520 -1.794630 0.839290 
		CHANNELS 3 Zrotation Yrotation Xrotation
		JOINT RightLeg
		{
			OFFSET -2.542530 -6.985550 0.000000 
			CHANNELS 3 Zrotation Yrotation Xrotation
			JOINT RightFoot
			{
				OFFSET -2.568260 -7.056230 0.000000 
				CHANNELS 3 Zrotation Yrotation Xrotation
				JOINT RightToeBase
				{
					OFFSET -0.164730 -0.452590 2.363150 
					CHANNELS 3 Zrotation Yrotation Xrotation
					End Site
					{
						OFFSET 0.000000 0.000000 0.000000 
					}
				}
			}
		}
	}
	JOINT Spine
	{
		OFFSET 0.028270 2.035590 -0.193380 
		CHANNELS 3 Zrotation Yrotation Xrotation
		JOINT Spine1
		{
			OFFSET 0.056720 2.048850 -0.042750 
			CHANNELS 3 Zrotation Yrotation Xrotation
			JOINT Neck1
			{
				OFFSET -0.054170 1.746240 0.172020 
				CHANNELS 3 Zrotation Yrotation Xrotation
				JOINT Head
				{
					OFFSET 0.104070 1.761360 -0.123970 
					CHANNELS 3 Zrotation Yrotation Xrotation
					End Site
					{
						OFFSET 0.000000 0.000000 0.000000 
					}
				}
			}
			JOINT LeftArm
			{
				OFFSET 3.362410 1.200890 -0.311210 
				CHANNELS 3 Zrotation Yrotation Xrotation
				JOINT LeftForeArm
				{
					OFFSET 4.983000 -0.000000 -0.000000 
					CHANNELS 3 Zrotation Yrotation Xrotation
					JOINT LeftHand
					{
						OFFSET 3.483560 -0.000000 -0.000000 
						CHANNELS 3 Zrotation Yrotation Xrotation
						JOINT LeftHandIndex1
						{
							OFFSET 0.715260 -0.000000 -0.000000 
							CHANNELS 3 Zrotation Yrotation Xrotation
							End Site
							{
								OFFSET 0.000000 0.000000 0.000000 
							}
						}
					}
				}
			}
			JOINT RightArm
			{
				OFFSET -3.136600 1.374050 -0.404650 
				CHANNELS 3 Zrotation Yrotation Xrotation
				JOINT RightForeArm
				{
					OFFSET -5.241900 -0.000000 -0.000000 
					CHANNELS 3 Zrotation Yrotation Xrotation
					JOINT RightHand
					{
						OFFSET -3.444170 -0.000000 -0.000000 
						CHANNELS 3 Zrotation Yrotation Xrotation
						JOINT RightHandIndex1
						{
							OFFSET -0.622530 -0.000000 -0.000000 
							CHANNELS 3 Zrotation Yrotation Xrotation
							End Site
							{
								OFFSET 0.000000 0.000000 0.000000 
							}
						}
					}
				}
			}
		}
	}
}
MOTION
Frames: 10
Frame Time: 0.041667
10.228018 17.920289 -7.267235 -1.606937 -6.663422 4.441848 -2.039013 -14.365578 -23.327248 -0.569726 2.399239 8.444471 -2.770725 13.665295 -8.944399 0.260400 -3.282700 -9.066800 22.554633 9.033403 8.249533 -0.819902 -3.032078 10.614273 0.237147 -3.973666 -7.937189 -0.106200 2.101200 -5.785600 5.455655 -0.748006 4.730542 -3.049056 -0.402141 0.016752 7.932869 -18.236163 29.648105 2.261300 -8.275700 13.827000 -84.294559 9.864914 5.247661 24.392341 -29.506860 -6.878218 0.997027 -1.886378 -33.421267 -7.125000 0.000000 0.000000 86.200731 -14.156158 23.881953 -47.406851 50.593741 -24.281972 0.632507 -0.229591 -22.992086 7.125000 0.000000 0.000000 
10.260923 17.920192 -7.136202 -1.567476 -6.874654 4.292542 -2.384635 -14.258869 -23.153399 -0.561174 2.437434 8.562777 -2.740685 13.535309 -8.807044 0.311800 -3.590000 -9.925900 22.277344 8.708760 8.888394 -0.797214 -2.956388 10.331124 0.219691 -3.639171 -7.465327 -0.081000 1.836400 -5.053700 5.394482 -0.648888 4.818941 -3.082081 -0.351425 -0.053967 7.602476 -18.174840 29.246901 2.101800 -8.266700 13.521300 -84.354480 9.997371 5.655597 24.368486 -29.475230 -6.877632 0.906552 -1.821913 -34.646090 -7.125000 0.000000 0.000000 86.105703 -14.469647 24.065589 -48.319604 51.002852 -25.028935 0.638512 -0.215124 -23.367826 7.125000 0.000000 0.000000 
10.291303 17.922521 -7.004391 -1.874388 -7.236264 4.292622 -2.396346 -14.012783 -23.178595 -0.529641 2.585134 8.937951 -2.739870 13.514755 -8.628192 0.493800 -4.505200 -12.502600 22.425336 8.780357 9.423905 -0.793577 -2.934299 10.245091 0.210355 -3.408380 -7.097524 -0.105600 2.095000 -5.768100 5.474551 -0.553453 4.739787 -3.160563 -0.299370 -0.223571 7.577062 -18.188408 28.612951 2.117400 -8.313700 13.067200 -84.534457 10.495817 5.439039 24.572049 -29.730749 -6.993483 0.849464 -1.835356 -35.103279 -7.125000 0.000000 0.000000 86.156363 -14.943010 24.126453 -49.088218 51.335498 -25.662664 0.637893 -0.219648 -23.242636 7.125000 0.000000 0.000000 
10.320907 17.916406 -6.868310 -2.170940 -7.441034 4.346260 -2.382982 -13.889490 -23.121653 -0.505351 2.690214 9.208689 -2.687871 13.294328 -8.500604 0.440200 -4.257100 -11.801100 22.599251 8.851460 9.854959 -0.804411 -2.979227 10.356298 0.210007 -3.289784 -6.793036 -0.151300 2.506100 -6.906700 5.406743 -0.575206 4.747589 -3.332414 -0.306743 -0.203583 7.505505 -18.107403 28.543659 2.074200 -8.270300 12.991800 -84.628544 10.853752 4.757931 24.863008 -30.101896 -7.168989 0.826576 -1.814960 -35.202532 -7.125000 0.000000 0.000000 86.340930 -15.118551 24.342955 -49.499984 51.503554 -26.002782 0.645336 -0.224324 -23.189327 7.125000 0.000000 0.000000 
10.347599 17.905535 -6.730094 -2.132786 -7.493233 4.348807 -2.677131 -13.952876 -23.134910 -0.442149 2.901982 9.839832 -2.577853 12.810544 -8.107814 0.257700 -3.266000 -9.020100 22.416137 8.622614 10.221691 -0.808582 -3.009280 10.404405 0.206811 -3.119098 -6.389342 -0.193100 2.830300 -7.806500 5.256252 -0.825013 5.062722 -3.273893 -0.426676 0.193954 7.091691 -17.725503 28.854851 1.827300 -8.039100 13.185900 -84.713409 10.767816 3.851678 25.116299 -30.420504 -7.329432 0.864809 -1.781359 -35.351706 -7.125000 0.000000 0.000000 86.217141 -14.688855 25.088899 -49.611196 51.542162 -26.095519 0.659612 -0.219890 -23.320135 7.125000 0.000000 0.000000 
10.370700 17.897965 -6.587024 -2.232051 -7.539587 4.378483 -3.345802 -12.830900 -23.515685 -0.353759 3.175713 10.558304 -2.407730 11.990996 -6.476497 0.364700 -3.879300 -10.737300 22.386899 8.321048 10.548521 -0.814825 -3.028580 10.445777 0.187813 -2.777246 -5.965871 -0.171700 2.669100 -7.358900 5.311964 -0.946822 5.339720 -3.156035 -0.479385 0.593128 7.068608 -17.615778 29.020495 1.776900 -7.949900 13.382600 -84.810131 10.535856 3.414481 25.227462 -30.550584 -7.398425 0.921180 -1.791781 -35.467814 -7.125000 0.000000 0.000000 86.013420 -14.385440 25.267114 -49.899474 51.666462 -26.343013 0.653921 -0.208584 -23.280130 7.125000 0.000000 0.000000 
10.399430 17.893403 -6.435510 -2.645973 -7.763474 4.321183 -3.690517 -11.710013 -23.646136 -0.273377 3.472512 11.283413 -2.313726 11.557820 -5.281836 0.688500 -5.304800 -14.780000 22.654146 8.143273 11.087328 -0.820914 -3.042304 10.474557 0.161308 -2.380062 -5.610477 -0.141900 2.427700 -6.689100 5.377868 -0.717983 5.203632 -3.361090 -0.360286 0.414922 7.410383 -17.883000 29.158308 1.938600 -8.076300 13.503600 -84.788103 10.876925 3.682641 25.309660 -30.658974 -7.477213 0.751136 -1.628783 -35.490474 -7.125000 0.000000 0.000000 86.159326 -15.039821 24.766105 -50.667893 51.985620 -26.988147 0.639581 -0.206549 -23.470168 7.125000 0.000000 0.000000 
10.432334 17.893888 -6.279531 -2.639571 -8.159869 4.243866 -4.153488 -11.360735 -23.588436 -0.173979 3.809835 12.220699 -2.275240 11.391464 -4.709882 0.784100 -5.653100 -15.781200 22.385650 8.023748 11.841008 -0.787062 -2.915541 10.038777 0.144817 -2.056511 -5.108157 -0.153200 2.522200 -6.951300 5.250051 -0.519765 4.998494 -3.429894 -0.268647 0.200018 7.490842 -17.902203 29.094591 2.011100 -8.112300 13.392200 -84.844835 11.392114 3.652597 25.540133 -30.938768 -7.636987 0.738408 -1.601306 -35.601094 -7.125000 0.000000 0.000000 86.286739 -15.787219 24.708907 -51.309133 52.234698 -27.523398 0.636780 -0.214629 -23.813902 7.125000 0.000000 0.000000 
10.459997 17.895053 -6.137918 -2.719308 -8.432803 4.347708 -4.155855 -11.804820 -23.586559 -0.066755 4.110897 13.095369 -2.347800 11.680427 -4.091063 0.510400 -4.579400 -12.712800 22.244569 7.960295 12.688543 -0.722629 -2.614982 9.121327 0.155636 -1.917534 -4.277444 -0.150000 2.495600 -6.877400 5.156054 -0.534974 4.910235 -3.400455 -0.283470 0.214595 7.447569 -17.717267 28.873294 1.986100 -8.020000 13.201100 -84.794880 11.461430 3.279353 25.688745 -31.120056 -7.720606 0.781833 -1.638290 -35.918865 -7.125000 0.000000 0.000000 86.379681 -15.952631 24.956785 -51.533786 52.317603 -27.720924 0.634469 -0.219020 -23.833014 7.125000 0.000000 0.000000 
10.489116 17.891656 -5.993974 -2.767176 -8.372490 4.324698 -4.123609 -12.631481 -23.335544 0.016366 4.308629 13.696829 -2.487361 12.260265 -3.509553 0.163800 -2.607400 -7.187400 22.052722 7.496424 13.671489 -0.648997 -2.242761 7.993227 0.172443 -1.836899 -3.233026 -0.134600 2.364400 -6.514000 4.968415 -0.591533 4.809865 -3.471014 -0.322023 0.154276 7.677920 -17.829057 28.732030 2.061400 -8.053700 13.114700 -84.579938 11.631150 3.279255 25.866822 -31.329466 -7.820888 0.852297 -1.711319 -36.233870 -7.125000 0.000000 0.000000 86.663380 -16.125424 24.773508 -51.685112 52.376224 -27.853921 0.629175 -0.226621 -23.683511 7.125000 0.000000 0.000000 
